<?xml version="1.0" encoding="utf-8"?>
<!-- Generator: Adobe Illustrator 23.0.3, SVG Export Plug-In . SVG Version: 6.00 Build 0)  -->
<svg version="1.1" id="Слой_1" xmlns="http://www.w3.org/2000/svg" xmlns:xlink="http://www.w3.org/1999/xlink" x="0px" y="0px"
	 viewBox="0 0 512 504.9" style="enable-background:new 0 0 512 504.9;" xml:space="preserve">
<style type="text/css">
	.st0{fill:#FFFFFF;}
</style>
<g>
	<path d="M426.7,0H85.3C38.3,0,0,38.3,0,85.3v256c0,47.1,38.3,85.3,85.3,85.3h62.4l80,67.3c8.1,7.3,18.4,10.9,28.5,10.9
		c10,0,19.9-3.5,27.6-10.3l82.1-67.8h60.8c47.1,0,85.3-38.3,85.3-85.3v-256C512,38.3,473.7,0,426.7,0z"/>
</g>
<path class="st0" d="M273.8,343c-16.3,0-31.2-2.6-44.9-7.8c-13.6-5.2-25.5-12.6-35.6-22.2c-10.1-9.6-17.9-20.9-23.5-33.8
	c-5.6-12.9-8.4-27.2-8.4-42.7c0-15.5,2.8-29.7,8.4-42.7c5.6-12.9,13.5-24.2,23.7-33.8c10.2-9.6,22.2-17,35.9-22.2
	c13.7-5.2,28.8-7.8,45.3-7.8c18.2,0,34.7,3,49.3,9.1c14.6,6.1,26.9,14.9,36.9,26.5l-30.6,28.2c-7.5-7.8-15.6-13.7-24.4-17.5
	c-8.8-3.8-18.4-5.7-28.8-5.7c-10,0-19.1,1.6-27.4,4.7c-8.2,3.1-15.3,7.6-21.3,13.5c-6,5.9-10.6,12.8-13.8,20.9
	c-3.2,8-4.9,17-4.9,26.8c0,9.6,1.6,18.4,4.9,26.5c3.2,8,7.8,15.1,13.8,21c6,6,13,10.5,21.2,13.7c8.1,3.1,17.1,4.7,26.9,4.7
	c9.4,0,18.6-1.5,27.5-4.6c8.9-3,17.6-8.2,26-15.4l27.1,34.4c-11.2,8.4-24.2,14.9-39,19.4C303.2,340.7,288.5,343,273.8,343z
	 M313.5,310.6v-77.4H357v83.6L313.5,310.6z"/>
</svg>
