<?xml version="1.0" encoding="utf-8"?>
<!-- Generator: Adobe Illustrator 23.0.3, SVG Export Plug-In . SVG Version: 6.00 Build 0)  -->
<svg version="1.1" id="Слой_1" xmlns="http://www.w3.org/2000/svg" xmlns:xlink="http://www.w3.org/1999/xlink" x="0px" y="0px"
	 viewBox="0 0 1073.4 504.9" style="enable-background:new 0 0 1073.4 504.9;" xml:space="preserve">
<style type="text/css">
	.st0{fill:#FFFFFF;}
</style>
<g>
	<path d="M426.7,0H85.3C38.3,0,0,38.3,0,85.3v256c0,47.1,38.3,85.3,85.3,85.3h62.4l80,67.3c8.1,7.3,18.4,10.9,28.5,10.9
		c10,0,19.9-3.5,27.6-10.3l82.1-67.8h60.8c47.1,0,85.3-38.3,85.3-85.3v-256C512,38.3,473.7,0,426.7,0z"/>
	<g>
		<path d="M614.2,236.5c-7.7,0-14.9-1.2-21.4-3.7c-6.5-2.5-12.1-6-16.9-10.6c-4.8-4.6-8.5-9.9-11.2-16.1c-2.7-6.2-4-12.9-4-20.3
			c0-7.4,1.3-14.1,4-20.3c2.7-6.2,6.4-11.5,11.3-16.1c4.9-4.6,10.5-8.1,17.1-10.6c6.5-2.5,13.7-3.7,21.6-3.7
			c8.7,0,16.5,1.4,23.4,4.3c7,2.9,12.8,7.1,17.6,12.6L641,165.6c-3.5-3.7-7.4-6.5-11.6-8.3c-4.2-1.8-8.8-2.7-13.7-2.7
			c-4.8,0-9.1,0.7-13,2.2c-3.9,1.5-7.3,3.6-10.2,6.4c-2.8,2.8-5,6.1-6.6,9.9c-1.5,3.8-2.3,8.1-2.3,12.7c0,4.6,0.8,8.8,2.3,12.6
			c1.5,3.8,3.7,7.2,6.6,10c2.8,2.8,6.2,5,10.1,6.5c3.9,1.5,8.1,2.2,12.8,2.2c4.5,0,8.8-0.7,13.1-2.2c4.2-1.4,8.4-3.9,12.4-7.4
			l12.9,16.4c-5.3,4-11.5,7.1-18.5,9.2C628.2,235.5,621.2,236.5,614.2,236.5z M633.1,221.1v-36.8h20.7v39.8L633.1,221.1z"/>
		<path d="M674.8,234.9v-98h22.7v98H674.8z"/>
		<path d="M720.7,234.9v-98h18.8l41.7,69.2h-9.9l41-69.2h18.6l0.3,98h-21.3l-0.1-65.4h3.9l-32.8,55h-10.2l-33.5-55h4.8v65.4H720.7z"
			/>
		<path d="M854.4,234.9v-98h18.8l41.7,69.2h-9.9l41-69.2h18.6l0.3,98h-21.3l-0.1-65.4h3.9l-32.8,55h-10.2l-33.5-55h4.8v65.4H854.4z"
			/>
		<path d="M1010.6,216.7h53.3v18.2h-75.9v-98h74.1v18.2h-51.5V216.7z M1009,176.3h47.2V194H1009V176.3z"/>
	</g>
	<g>
		<path d="M573.9,367.6v-98h42.4c8.8,0,16.3,1.4,22.7,4.3c6.3,2.8,11.2,6.9,14.7,12.3c3.5,5.3,5.2,11.7,5.2,19
			c0,7.3-1.7,13.6-5.2,18.9c-3.5,5.3-8.4,9.4-14.7,12.3c-6.3,2.8-13.9,4.3-22.7,4.3h-29.8l10.1-10.2v37.2H573.9z M596.5,332.9
			l-10.1-10.8H615c7,0,12.2-1.5,15.7-4.5c3.5-3,5.2-7.1,5.2-12.5c0-5.4-1.7-9.6-5.2-12.6c-3.5-3-8.7-4.5-15.7-4.5h-28.6l10.1-10.8
			V332.9z"/>
		<path d="M723.9,369.3c-7.7,0-14.9-1.3-21.5-3.8c-6.6-2.5-12.3-6.1-17.1-10.6c-4.8-4.6-8.5-9.9-11.2-16.1c-2.7-6.2-4-12.9-4-20.2
			s1.3-14,4-20.2c2.7-6.2,6.4-11.5,11.3-16.1c4.9-4.6,10.5-8.1,17.1-10.6c6.5-2.5,13.6-3.8,21.3-3.8c7.7,0,14.9,1.3,21.3,3.8
			c6.5,2.5,12.1,6.1,16.9,10.6c4.8,4.6,8.6,9.9,11.3,16c2.7,6.1,4.1,12.9,4.1,20.2c0,7.3-1.4,14-4.1,20.2
			c-2.7,6.2-6.5,11.6-11.3,16.1c-4.8,4.5-10.5,8-16.9,10.6C738.7,368,731.6,369.3,723.9,369.3z M723.8,350c4.4,0,8.4-0.7,12.1-2.2
			c3.7-1.5,6.9-3.6,9.7-6.4c2.8-2.8,5-6.1,6.5-9.9c1.5-3.8,2.3-8.1,2.3-12.7c0-4.7-0.8-8.9-2.3-12.7c-1.5-3.8-3.7-7.1-6.4-9.9
			c-2.8-2.8-6-4.9-9.7-6.4c-3.7-1.5-7.8-2.2-12.2-2.2c-4.4,0-8.4,0.7-12.1,2.2c-3.7,1.5-6.9,3.6-9.7,6.4c-2.8,2.8-5,6.1-6.5,9.9
			c-1.5,3.8-2.3,8.1-2.3,12.7c0,4.6,0.8,8.8,2.3,12.7c1.5,3.9,3.7,7.2,6.4,10c2.8,2.8,6,4.9,9.7,6.4
			C715.3,349.2,719.4,350,723.8,350z"/>
		<path d="M826.7,369.3c-7.8,0-15.4-1.1-22.5-3.2c-7.2-2.1-13-4.8-17.4-8.2l7.7-17.1c4.2,3,9.2,5.4,14.9,7.4
			c5.7,1.9,11.5,2.9,17.4,2.9c4.5,0,8.1-0.4,10.8-1.3c2.8-0.9,4.8-2.1,6.1-3.7c1.3-1.6,2-3.4,2-5.5c0-2.6-1-4.7-3.1-6.2
			c-2.1-1.5-4.8-2.8-8.1-3.8c-3.4-1-7.1-1.9-11.1-2.8c-4.1-0.9-8.1-2-12.2-3.3c-4.1-1.3-7.8-3-11.1-5c-3.4-2.1-6.1-4.8-8.2-8.1
			c-2.1-3.4-3.2-7.7-3.2-12.9c0-5.6,1.5-10.7,4.5-15.3c3-4.6,7.6-8.3,13.7-11.1c6.1-2.8,13.8-4.1,23-4.1c6.2,0,12.2,0.7,18.2,2.2
			c6,1.4,11.2,3.6,15.8,6.5l-7,17.2c-4.6-2.6-9.1-4.6-13.7-5.8c-4.6-1.3-9.1-1.9-13.4-1.9c-4.4,0-8,0.5-10.8,1.5c-2.8,1-4.8,2.4-6,4
			c-1.2,1.6-1.8,3.5-1.8,5.7c0,2.5,1,4.5,3.1,6.1c2.1,1.5,4.8,2.8,8.1,3.7c3.4,0.9,7.1,1.9,11.1,2.8c4.1,0.9,8.1,2,12.2,3.2
			c4.1,1.2,7.8,2.8,11.1,4.9c3.4,2.1,6.1,4.8,8.2,8.1s3.2,7.6,3.2,12.7c0,5.5-1.5,10.5-4.6,15.1c-3.1,4.6-7.7,8.3-13.8,11.1
			C843.7,367.9,836,369.3,826.7,369.3z"/>
		<path d="M902.7,367.6v-79.5h-31.4v-18.5h85.4v18.5h-31.4v79.5H902.7z"/>
	</g>
</g>
<path class="st0" d="M273.8,343c-16.3,0-31.2-2.6-44.9-7.8c-13.6-5.2-25.5-12.6-35.6-22.2c-10.1-9.6-17.9-20.9-23.5-33.8
	c-5.6-12.9-8.4-27.2-8.4-42.7c0-15.5,2.8-29.7,8.4-42.7c5.6-12.9,13.5-24.2,23.7-33.8c10.2-9.6,22.2-17,35.9-22.2
	c13.7-5.2,28.8-7.8,45.3-7.8c18.2,0,34.7,3,49.3,9.1c14.6,6.1,26.9,14.9,36.9,26.5l-30.6,28.2c-7.5-7.8-15.6-13.7-24.4-17.5
	c-8.8-3.8-18.4-5.7-28.8-5.7c-10,0-19.1,1.6-27.4,4.7c-8.2,3.1-15.3,7.6-21.3,13.5c-6,5.9-10.6,12.8-13.8,20.9
	c-3.2,8-4.9,17-4.9,26.8c0,9.6,1.6,18.4,4.9,26.5c3.2,8,7.8,15.1,13.8,21c6,6,13,10.5,21.2,13.7c8.1,3.1,17.1,4.7,26.9,4.7
	c9.4,0,18.6-1.5,27.5-4.6c8.9-3,17.6-8.2,26-15.4l27.1,34.4c-11.2,8.4-24.2,14.9-39,19.4C303.2,340.7,288.5,343,273.8,343z
	 M313.5,310.6v-77.4H357v83.6L313.5,310.6z"/>
</svg>
